<mxfile host="65bd71144e" modified="2021-01-07T09:00:17.964Z" agent="5.0 (Windows NT 10.0; Win64; x64) AppleWebKit/537.36 (KHTML, like Gecko) Code/1.52.1 Chrome/83.0.4103.122 Electron/9.3.5 Safari/537.36" version="13.10.0" etag="8VLJmn_SnRfpa3DDhGxw" type="embed">
    <diagram id="7pbDaX_WSINXc0xlNzjz" name="第 1 页">
        <mxGraphModel dx="2129" dy="830" grid="1" gridSize="10" guides="1" tooltips="1" connect="1" arrows="1" fold="1" page="1" pageScale="1" pageWidth="827" pageHeight="1169" math="0" shadow="0">
            <root>
                <mxCell id="0"/>
                <mxCell id="1" parent="0"/>
                <mxCell id="108" value="" style="rounded=0;whiteSpace=wrap;html=1;fontSize=15;dashed=1;opacity=50;strokeWidth=2;fillColor=#dae8fc;strokeColor=#6c8ebf;" vertex="1" parent="1">
                    <mxGeometry x="210" y="377.5" width="180" height="602.5" as="geometry"/>
                </mxCell>
                <mxCell id="10" value="" style="edgeStyle=elbowEdgeStyle;rounded=0;orthogonalLoop=1;jettySize=auto;elbow=vertical;html=1;" edge="1" parent="1" target="9">
                    <mxGeometry relative="1" as="geometry">
                        <mxPoint x="300" y="340" as="sourcePoint"/>
                    </mxGeometry>
                </mxCell>
                <mxCell id="96" value="TransForm" style="edgeLabel;html=1;align=center;verticalAlign=middle;resizable=0;points=[];fontSize=15;" vertex="1" connectable="0" parent="10">
                    <mxGeometry x="0.2545" y="-1" relative="1" as="geometry">
                        <mxPoint as="offset"/>
                    </mxGeometry>
                </mxCell>
                <mxCell id="13" style="edgeStyle=elbowEdgeStyle;rounded=0;orthogonalLoop=1;jettySize=auto;elbow=vertical;html=1;exitX=0.5;exitY=1;exitDx=0;exitDy=0;" edge="1" parent="1" target="15">
                    <mxGeometry relative="1" as="geometry">
                        <mxPoint x="150" y="430" as="targetPoint"/>
                        <mxPoint x="300" y="340" as="sourcePoint"/>
                    </mxGeometry>
                </mxCell>
                <mxCell id="110" value="" style="edgeStyle=orthogonalEdgeStyle;rounded=0;orthogonalLoop=1;jettySize=auto;html=1;fontSize=15;" edge="1" parent="1" source="2" target="16">
                    <mxGeometry relative="1" as="geometry"/>
                </mxCell>
                <mxCell id="2" value="&lt;font style=&quot;font-size: 24px&quot;&gt;&lt;b&gt;Robot&lt;/b&gt;&lt;/font&gt;" style="rounded=1;whiteSpace=wrap;html=1;fillColor=#b1ddf0;strokeColor=#10739e;" vertex="1" parent="1">
                    <mxGeometry x="240" y="290" width="120" height="60" as="geometry"/>
                </mxCell>
                <mxCell id="19" style="edgeStyle=elbowEdgeStyle;rounded=0;orthogonalLoop=1;jettySize=auto;elbow=vertical;html=1;exitX=0.5;exitY=1;exitDx=0;exitDy=0;fontSize=20;" edge="1" parent="1" source="9" target="20">
                    <mxGeometry relative="1" as="geometry">
                        <mxPoint x="300" y="540" as="targetPoint"/>
                    </mxGeometry>
                </mxCell>
                <mxCell id="9" value="HingeJoint" style="whiteSpace=wrap;html=1;rounded=1;fontSize=20;fillColor=#f5f5f5;strokeColor=#666666;fontColor=#333333;" vertex="1" parent="1">
                    <mxGeometry x="80" y="400" width="120" height="60" as="geometry"/>
                </mxCell>
                <mxCell id="15" value="Body" style="rounded=1;whiteSpace=wrap;html=1;fontSize=20;fillColor=none;" vertex="1" parent="1">
                    <mxGeometry x="240" y="400" width="120" height="60" as="geometry"/>
                </mxCell>
                <mxCell id="16" value="IMU" style="rounded=1;whiteSpace=wrap;html=1;fontSize=20;fillColor=#f8cecc;strokeColor=#b85450;" vertex="1" parent="1">
                    <mxGeometry x="80" y="290" width="120" height="60" as="geometry"/>
                </mxCell>
                <mxCell id="22" value="&lt;span style=&quot;color: rgb(0, 0, 0); font-family: helvetica; font-size: 15px; font-style: normal; font-weight: 400; letter-spacing: normal; text-align: center; text-indent: 0px; text-transform: none; word-spacing: 0px; background-color: rgb(255, 255, 255); display: inline; float: none;&quot;&gt;Transform&lt;/span&gt;" style="edgeStyle=elbowEdgeStyle;rounded=0;orthogonalLoop=1;jettySize=auto;elbow=vertical;html=1;fontSize=15;" edge="1" parent="1" source="20" target="21">
                    <mxGeometry relative="1" as="geometry"/>
                </mxCell>
                <mxCell id="27" value="" style="edgeStyle=elbowEdgeStyle;rounded=0;orthogonalLoop=1;jettySize=auto;elbow=vertical;html=1;fontSize=20;" edge="1" parent="1" source="20" target="26">
                    <mxGeometry relative="1" as="geometry"/>
                </mxCell>
                <mxCell id="32" style="rounded=0;orthogonalLoop=1;jettySize=auto;elbow=vertical;html=1;exitX=1;exitY=0.5;exitDx=0;exitDy=0;entryX=0;entryY=0.5;entryDx=0;entryDy=0;edgeStyle=orthogonalEdgeStyle;fontSize=20;" edge="1" parent="1" source="20" target="29">
                    <mxGeometry relative="1" as="geometry">
                        <mxPoint x="330" y="735" as="targetPoint"/>
                    </mxGeometry>
                </mxCell>
                <mxCell id="20" value="EndPoint" style="rounded=1;whiteSpace=wrap;html=1;fontSize=20;fillColor=#bac8d3;strokeColor=#23445d;" vertex="1" parent="1">
                    <mxGeometry x="80" y="485" width="120" height="60" as="geometry"/>
                </mxCell>
                <mxCell id="34" value="" style="edgeStyle=orthogonalEdgeStyle;rounded=0;orthogonalLoop=1;jettySize=auto;html=1;fontSize=20;" edge="1" parent="1" source="21" target="33">
                    <mxGeometry relative="1" as="geometry"/>
                </mxCell>
                <mxCell id="21" value="HingeJoint" style="whiteSpace=wrap;html=1;rounded=1;fontSize=20;fillColor=#f5f5f5;strokeColor=#666666;fontColor=#333333;" vertex="1" parent="1">
                    <mxGeometry x="80" y="575" width="120" height="60" as="geometry"/>
                </mxCell>
                <mxCell id="26" value="Hip Link" style="whiteSpace=wrap;html=1;rounded=1;fontSize=20;fillColor=none;" vertex="1" parent="1">
                    <mxGeometry x="240" y="485" width="120" height="60" as="geometry"/>
                </mxCell>
                <mxCell id="29" value="Hip Motor" style="rounded=1;whiteSpace=wrap;html=1;fontSize=20;fillColor=none;" vertex="1" parent="1">
                    <mxGeometry x="240" y="565" width="120" height="60" as="geometry"/>
                </mxCell>
                <mxCell id="39" value="" style="edgeStyle=orthogonalEdgeStyle;rounded=0;orthogonalLoop=1;jettySize=auto;html=1;fontSize=20;" edge="1" parent="1" source="33" target="37">
                    <mxGeometry relative="1" as="geometry"/>
                </mxCell>
                <mxCell id="40" style="edgeStyle=orthogonalEdgeStyle;rounded=0;orthogonalLoop=1;jettySize=auto;html=1;exitX=1;exitY=0.5;exitDx=0;exitDy=0;entryX=0;entryY=0.5;entryDx=0;entryDy=0;fontSize=20;" edge="1" parent="1" source="33" target="38">
                    <mxGeometry relative="1" as="geometry"/>
                </mxCell>
                <mxCell id="88" value="&lt;font style=&quot;font-size: 15px&quot;&gt;Transform&lt;/font&gt;" style="edgeStyle=orthogonalEdgeStyle;rounded=0;orthogonalLoop=1;jettySize=auto;html=1;fontSize=20;" edge="1" parent="1" source="33" target="77">
                    <mxGeometry relative="1" as="geometry"/>
                </mxCell>
                <mxCell id="33" value="EndPoint" style="whiteSpace=wrap;html=1;rounded=1;fontSize=20;fillColor=#bac8d3;strokeColor=#23445d;" vertex="1" parent="1">
                    <mxGeometry x="80" y="655" width="120" height="60" as="geometry"/>
                </mxCell>
                <mxCell id="37" value="Knee Link" style="whiteSpace=wrap;html=1;rounded=1;fontSize=20;fillColor=none;" vertex="1" parent="1">
                    <mxGeometry x="240" y="655" width="120" height="60" as="geometry"/>
                </mxCell>
                <mxCell id="38" value="Knee Motor" style="rounded=1;whiteSpace=wrap;html=1;fontSize=20;fillColor=none;" vertex="1" parent="1">
                    <mxGeometry x="240" y="735" width="120" height="60" as="geometry"/>
                </mxCell>
                <mxCell id="76" value="" style="edgeStyle=orthogonalEdgeStyle;rounded=0;orthogonalLoop=1;jettySize=auto;html=1;fontSize=20;" edge="1" parent="1" source="77" target="80">
                    <mxGeometry relative="1" as="geometry"/>
                </mxCell>
                <mxCell id="77" value="HingeJoint" style="whiteSpace=wrap;html=1;rounded=1;fontSize=20;fillColor=#f5f5f5;strokeColor=#666666;fontColor=#333333;" vertex="1" parent="1">
                    <mxGeometry x="80" y="750" width="120" height="60" as="geometry"/>
                </mxCell>
                <mxCell id="78" value="" style="edgeStyle=orthogonalEdgeStyle;rounded=0;orthogonalLoop=1;jettySize=auto;html=1;fontSize=20;" edge="1" parent="1" source="80" target="81">
                    <mxGeometry relative="1" as="geometry"/>
                </mxCell>
                <mxCell id="79" style="edgeStyle=orthogonalEdgeStyle;rounded=0;orthogonalLoop=1;jettySize=auto;html=1;exitX=1;exitY=0.5;exitDx=0;exitDy=0;entryX=0;entryY=0.5;entryDx=0;entryDy=0;fontSize=20;" edge="1" parent="1" source="80" target="82">
                    <mxGeometry relative="1" as="geometry"/>
                </mxCell>
                <mxCell id="80" value="EndPoint" style="whiteSpace=wrap;html=1;rounded=1;fontSize=20;fillColor=#bac8d3;strokeColor=#23445d;" vertex="1" parent="1">
                    <mxGeometry x="80" y="830" width="120" height="60" as="geometry"/>
                </mxCell>
                <mxCell id="81" value="Wheel Link" style="whiteSpace=wrap;html=1;rounded=1;fontSize=20;fillColor=none;" vertex="1" parent="1">
                    <mxGeometry x="240" y="830" width="120" height="60" as="geometry"/>
                </mxCell>
                <mxCell id="82" value="Wheel Motor" style="rounded=1;whiteSpace=wrap;html=1;fontSize=20;fillColor=none;" vertex="1" parent="1">
                    <mxGeometry x="240" y="910" width="120" height="60" as="geometry"/>
                </mxCell>
                <mxCell id="95" value="Solid Nodes&lt;br&gt;with&lt;br&gt;Physics" style="text;html=1;align=center;verticalAlign=middle;resizable=0;points=[];autosize=1;fontSize=20;" vertex="1" parent="1">
                    <mxGeometry x="414" y="638.75" width="120" height="80" as="geometry"/>
                </mxCell>
                <mxCell id="103" value="" style="shape=curlyBracket;whiteSpace=wrap;html=1;rounded=1;fontSize=20;rotation=-180;strokeWidth=2;" vertex="1" parent="1">
                    <mxGeometry x="394" y="377.5" width="20" height="602.5" as="geometry"/>
                </mxCell>
                <mxCell id="114" value="" style="endArrow=none;html=1;fontSize=15;" edge="1" parent="1">
                    <mxGeometry width="50" height="50" relative="1" as="geometry">
                        <mxPoint x="40" y="600" as="sourcePoint"/>
                        <mxPoint x="80" y="430" as="targetPoint"/>
                    </mxGeometry>
                </mxCell>
                <mxCell id="115" value="" style="endArrow=none;html=1;fontSize=15;" edge="1" parent="1">
                    <mxGeometry width="50" height="50" relative="1" as="geometry">
                        <mxPoint x="40" y="605" as="sourcePoint"/>
                        <mxPoint x="80" y="604.75" as="targetPoint"/>
                    </mxGeometry>
                </mxCell>
                <mxCell id="118" value="" style="endArrow=none;html=1;fontSize=15;" edge="1" parent="1">
                    <mxGeometry width="50" height="50" relative="1" as="geometry">
                        <mxPoint x="40" y="610" as="sourcePoint"/>
                        <mxPoint x="80" y="779.5" as="targetPoint"/>
                    </mxGeometry>
                </mxCell>
                <mxCell id="119" value="" style="shape=curlyBracket;whiteSpace=wrap;html=1;rounded=1;strokeWidth=2;fillColor=#ffffff;gradientColor=none;fontSize=15;rotation=-180;" vertex="1" parent="1">
                    <mxGeometry x="20" y="565" width="20" height="85" as="geometry"/>
                </mxCell>
                <mxCell id="120" value="&lt;div style=&quot;text-align: right; line-height: 200%; font-size: 20px;&quot;&gt;&lt;span style=&quot;font-size: 20px;&quot;&gt;Motors&lt;/span&gt;&lt;br style=&quot;font-size: 20px;&quot;&gt;&lt;span style=&quot;font-size: 20px;&quot;&gt;Encoders&lt;/span&gt;&lt;br style=&quot;font-size: 20px;&quot;&gt;&lt;span style=&quot;font-size: 20px;&quot;&gt;Brakes&lt;/span&gt;&lt;br style=&quot;font-size: 20px;&quot;&gt;&lt;/div&gt;" style="text;html=1;align=center;verticalAlign=middle;resizable=0;points=[];autosize=1;fontSize=20;" vertex="1" parent="1">
                    <mxGeometry x="-80" y="540" width="100" height="130" as="geometry"/>
                </mxCell>
            </root>
        </mxGraphModel>
    </diagram>
</mxfile>